<?xml version="1.0" encoding="utf-8"?>
<!-- Generator: Adobe Illustrator 16.0.0, SVG Export Plug-In . SVG Version: 6.00 Build 0)  -->
<!DOCTYPE svg PUBLIC "-//W3C//DTD SVG 1.1//EN" "http://www.w3.org/Graphics/SVG/1.1/DTD/svg11.dtd">
<svg version="1.1" id="Layer_1" xmlns="http://www.w3.org/2000/svg" xmlns:xlink="http://www.w3.org/1999/xlink" x="0px" y="0px"
	 width="32px" height="32px" viewBox="0 0 32 32" enable-background="new 0 0 32 32" xml:space="preserve">
<g>
	<path fill="#FFFFFF" d="M16,0.255C7.305,0.255,0.255,7.304,0.255,16c0,8.695,7.05,15.745,15.745,15.745
		c8.695,0,15.745-7.05,15.745-15.745C31.745,7.304,24.695,0.255,16,0.255z M10.188,5.17c1.019-0.229,1.709,0,1.709,0
		s-0.14-0.405,0.296-0.756c0.439-0.353,0.92-0.065,0.92-0.065s-0.004-0.008,0.46-0.263c0.674-0.37,1.726-0.333,2.461,0.283
		c0.448,0.375,0.629,0.735,0.629,0.735s0.294-0.569,0.951-0.603c0.657-0.032,1.12,0.701,1.12,0.701s0.812-0.106,1.445,0
		c0.647,0.109,1.139,0.522,1.139,0.522s0.263,0.213,0.248,0.355c-0.021,0.208-0.158,0.207-0.158,0.207h-1.795
		c0,0-0.35,0.066-0.545,0.711c-0.137,0.446-0.56,3.66-0.56,3.66s-0.091,0.285-0.127,0.37c-0.039,0.088-0.108,0.386-0.108,0.386
		l-0.035,0.711c0,0-0.055,0.449-0.346,0.48c-0.264,0.029-0.346-0.279-0.346-0.279l-0.029-1.303c0,0-0.041-0.19-0.061-0.252
		c-0.021-0.062-0.102-0.238-0.102-0.238S17.33,9.77,17.247,9.546c-0.058-0.152-0.354-0.562-0.354-0.562s-0.257-1.807-0.496-2.321
		c-0.166-0.357-0.622-0.374-0.622-0.374H9.103C9.103,6.288,9.168,5.4,10.188,5.17z M15.287,25.87
		c2.201,0.026,3.729-0.493,3.729-0.493l-0.185,1.157c0,0-1.368,0.559-3.425,0.559c-2.196,0-3.355-0.476-3.355-0.476l-0.254-1.143
		C11.798,25.477,13.343,25.846,15.287,25.87z M12.686,17.463l1.117,0.1l0.296,4.863l-0.953-0.099L12.686,17.463z M17.59,14.134
		c0.033-0.608,0.188-0.831,0.428-0.871c0.241-0.04,0.336,0.164,0.336,0.756c0,0.592-0.045,0.979-0.336,0.986
		C17.773,15.01,17.557,14.742,17.59,14.134z M23.841,20.939c0,0-0.227,0.269-0.487,0.371c-0.272,0.107-0.565,0.121-0.565,0.121
		l-1.935,0.153c-0.504,3.284-0.887,5.947-0.887,5.947s-1.949,0.917-4.68,0.917c-2.742,0-4.39-0.93-4.39-0.93
		S7.985,10.576,7.943,9.255C7.85,8.474,7.845,6.962,7.845,6.962h8.003c0,0,0.209,0.422,0.314,0.957
		c0.09,0.453,0.146,0.928,0.146,0.928l-3.017,0.07l0.446,7.757l-1.184-0.099l-0.939-7.72L9.275,8.66l-0.1-1.205h-0.45
		c0,0,0,1.35,0,1.8c0,1.224,2.654,16.241,2.91,17.681c0.304,0.172,1.467,0.732,3.652,0.732c2.195,0,3.566-0.566,3.939-0.742
		c0.232-1.542,2.471-16.444,2.559-17.676c0.061-0.846,0.064-1.516,0.045-1.795h-0.503l-0.116,1.166l-1.877,0.173
		c0,0,0.009-0.388,0.118-0.924c0.116-0.575,0.284-0.908,0.284-0.908l3.037-0.006c0,0-0.055,0.956-0.205,2.294
		c-0.041,0.36-0.084,0.896-0.164,1.556l2.279,0.193c0,0,0.482,0.034,0.732,0.337c0.229,0.276,0.229,0.644,0.229,0.644L23.841,20.939
		z"/>
	<path fill="#FFFFFF" d="M24.712,12.083c-0.146-0.108-0.342-0.121-0.342-0.121l-2.091-0.161c-0.313,2.393-0.817,5.797-1.274,8.795
		l1.693-0.066c0,0,0.231,0.013,0.382-0.096c0.139-0.102,0.195-0.384,0.195-0.384l1.504-7.703
		C24.779,12.347,24.842,12.181,24.712,12.083z"/>
</g>
</svg>
